<svg xmlns="http://www.w3.org/2000/svg" width="18.159" height="18.159" viewBox="0 0 18.159 18.159">
  <g id="Solid" transform="translate(-24 -24)">
    <path id="Path_5003" data-name="Path 5003" d="M145.308,38.127a.939.939,0,0,0,1.328,0l3.542-3.542a.939.939,0,0,0-1.328-1.328L146.911,35.2V24.939a.939.939,0,0,0-1.879,0V35.2l-1.939-1.939a.939.939,0,1,0-1.328,1.328Z" transform="translate(-112.892)" fill="#805a35"/>
    <path id="Path_5004" data-name="Path 5004" d="M41.22,232a.939.939,0,0,0-.939.939v7.2h-14.4v-7.2a.939.939,0,0,0-1.879,0v7.514a1.565,1.565,0,0,0,1.565,1.565H40.594a1.565,1.565,0,0,0,1.565-1.565v-7.514A.939.939,0,0,0,41.22,232Z" transform="translate(0 -199.86)" fill="#805a35"/>
  </g>
</svg>
